#Comment line ignore any data following # character 
#Hierarchical Translation and Rotation (.htr) file 
[Header]	
#Header keywords are followed by a single value 
FileType HTR		#Single word string
DataType HTRS		#Translation followed by rotation and scale data
FileVersion 1		#integer
NumSegments 84		#integer
NumFrames 2		#integer
DataFrameRate 30		#integer, data frame rate in this file
EulerRotationOrder ZYX
CalibrationUnits mm
RotationUnits Degrees
GlobalAxisofGravity Y
BoneLengthAxis Y
ScaleFactor 1.00
[SegmentNames&Hierarchy]
#CHILD	PARENT
MASTER GLOBAL
root MASTER
chest root
L_mid_tent01 root
R_mid_tent01 root
spine01 root
Bip01_Neck chest
L_humerus chest
R_humerus chest
weapon_bone chest
Bip01_Head Bip01_Neck
eye_left_bone Bip01_Head
eye_right_bone Bip01_Head
L_forearm L_humerus
L_front_hand L_forearm
L_weapon_bone L_forearm
L_front_hand01_01 L_front_hand
L_front_hand02_01 L_front_hand
L_front_hand03_01 L_front_hand
L_front_hand01_02 L_front_hand01_01
L_front_hand02_02 L_front_hand02_01
L_front_hand03_02 L_front_hand03_01
R_forearm R_humerus
R_front_hand R_forearm
R_weapon_bone R_forearm
R_front_hand01_01 R_front_hand
R_front_hand02_01 R_front_hand
R_front_hand03_01 R_front_hand
R_front_hand01_02 R_front_hand01_01
R_front_hand02_02 R_front_hand02_01
R_front_hand03_02 R_front_hand03_01
null_rope01_connect L_mid_tent01
Rope1_Seg01 null_rope01_connect
Rope1_Seg02 Rope1_Seg01
Rope1_Seg03 Rope1_Seg02
Rope1_Seg04 Rope1_Seg03
Rope1_Seg05 Rope1_Seg04
Rope1_Seg06 Rope1_Seg05
Rope1_Seg07 Rope1_Seg06
Rope1_Seg09 Rope1_Seg07
L_mid_hand01 Rope1_Seg09
L_mid_hand02 Rope1_Seg09
L_mid_hand03 Rope1_Seg09
null_rope02_connect R_mid_tent01
Rope2_Seg01 null_rope02_connect
Rope2_Seg02 Rope2_Seg01
Rope2_Seg03 Rope2_Seg02
Rope2_Seg04 Rope2_Seg03
Rope2_Seg05 Rope2_Seg04
Rope2_Seg06 Rope2_Seg05
Rope2_Seg07 Rope2_Seg06
Rope2_Seg09 Rope2_Seg07
R_mid_hand01 Rope2_Seg09
R_mid_hand02 Rope2_Seg09
R_mid_hand03 Rope2_Seg09
spine02 spine01
spine03 spine02
pelvis spine03
null_rope03_connect pelvis
null_rope04_connect pelvis
Rope3_Seg01 null_rope03_connect
Rope3_Seg02 Rope3_Seg01
Rope3_Seg03 Rope3_Seg02
Rope3_Seg04 Rope3_Seg03
Rope3_Seg05 Rope3_Seg04
Rope3_Seg06 Rope3_Seg05
Rope3_Seg07 Rope3_Seg06
Rope3_Seg08 Rope3_Seg07
Rope3_Seg09 Rope3_Seg08
R_rear_hand01 Rope3_Seg09
R_rear_hand02 Rope3_Seg09
R_rear_hand03 Rope3_Seg09
Rope4_Seg01 null_rope04_connect
Rope4_Seg02 Rope4_Seg01
Rope4_Seg03 Rope4_Seg02
Rope4_Seg04 Rope4_Seg03
Rope4_Seg05 Rope4_Seg04
Rope4_Seg06 Rope4_Seg05
Rope4_Seg07 Rope4_Seg06
Rope4_Seg08 Rope4_Seg07
Rope4_Seg09 Rope4_Seg08
L_rear_hand01 Rope4_Seg09
L_rear_hand02 Rope4_Seg09
L_rear_hand03 Rope4_Seg09
[BasePosition]
#SegmentName Tx, Ty, Tz, Rx, Ry, Rz, BoneLength
MASTER 0.000000 0.000000 0.000000 -90.000000 0.000000 0.000000 10.000000 
root 0.000000 0.000000 0.000000 0.000000 0.000000 0.000000 10.000000 
chest 0.000000 0.000000 0.000000 0.000000 0.000000 0.000000 10.000000 
L_mid_tent01 0.000000 0.000000 0.000000 0.000000 0.000000 0.000000 10.000000 
R_mid_tent01 0.000000 0.000000 0.000000 0.000000 0.000000 0.000000 10.000000 
spine01 0.000000 0.000000 0.000000 0.000000 0.000000 0.000000 10.000000 
Bip01_Neck 0.000000 0.000000 0.000000 0.000000 0.000000 0.000000 10.000000 
L_humerus 0.000000 0.000000 0.000000 0.000000 0.000000 0.000000 10.000000 
R_humerus 0.000000 0.000000 0.000000 0.000000 0.000000 0.000000 10.000000 
weapon_bone 0.000000 0.000000 0.000000 0.000000 0.000000 0.000000 10.000000 
Bip01_Head 0.000000 0.000000 0.000000 0.000000 0.000000 0.000000 10.000000 
eye_left_bone 0.000000 0.000000 0.000000 0.000000 0.000000 0.000000 10.000000 
eye_right_bone 0.000000 0.000000 0.000000 0.000000 0.000000 0.000000 10.000000 
L_forearm 0.000000 0.000000 0.000000 0.000000 0.000000 0.000000 10.000000 
L_front_hand 0.000000 0.000000 0.000000 0.000000 0.000000 0.000000 10.000000 
L_weapon_bone 0.000000 0.000000 0.000000 0.000000 0.000000 0.000000 10.000000 
L_front_hand01_01 0.000000 0.000000 0.000000 0.000000 0.000000 0.000000 10.000000 
L_front_hand02_01 0.000000 0.000000 0.000000 0.000000 0.000000 0.000000 10.000000 
L_front_hand03_01 0.000000 0.000000 0.000000 0.000000 0.000000 0.000000 10.000000 
L_front_hand01_02 0.000000 0.000000 0.000000 0.000000 0.000000 0.000000 10.000000 
L_front_hand02_02 0.000000 0.000000 0.000000 0.000000 0.000000 0.000000 10.000000 
L_front_hand03_02 0.000000 0.000000 0.000000 0.000000 0.000000 0.000000 10.000000 
R_forearm 0.000000 0.000000 0.000000 0.000000 0.000000 0.000000 10.000000 
R_front_hand 0.000000 0.000000 0.000000 0.000000 0.000000 0.000000 10.000000 
R_weapon_bone 0.000000 0.000000 0.000000 0.000000 0.000000 0.000000 10.000000 
R_front_hand01_01 0.000000 0.000000 0.000000 0.000000 0.000000 0.000000 10.000000 
R_front_hand02_01 0.000000 0.000000 0.000000 0.000000 0.000000 0.000000 10.000000 
R_front_hand03_01 0.000000 0.000000 0.000000 0.000000 0.000000 0.000000 10.000000 
R_front_hand01_02 0.000000 0.000000 0.000000 0.000000 0.000000 0.000000 10.000000 
R_front_hand02_02 0.000000 0.000000 0.000000 0.000000 0.000000 0.000000 10.000000 
R_front_hand03_02 0.000000 0.000000 0.000000 0.000000 0.000000 0.000000 10.000000 
null_rope01_connect 0.000000 0.000000 0.000000 0.000000 0.000000 0.000000 10.000000 
Rope1_Seg01 0.000000 0.000000 0.000000 0.000000 0.000000 0.000000 10.000000 
Rope1_Seg02 0.000000 0.000000 0.000000 0.000000 0.000000 0.000000 10.000000 
Rope1_Seg03 0.000000 0.000000 0.000000 0.000000 0.000000 0.000000 10.000000 
Rope1_Seg04 0.000000 0.000000 0.000000 0.000000 0.000000 0.000000 10.000000 
Rope1_Seg05 0.000000 0.000000 0.000000 0.000000 0.000000 0.000000 10.000000 
Rope1_Seg06 0.000000 0.000000 0.000000 0.000000 0.000000 0.000000 10.000000 
Rope1_Seg07 0.000000 0.000000 0.000000 0.000000 0.000000 0.000000 10.000000 
Rope1_Seg09 0.000000 0.000000 0.000000 0.000000 0.000000 0.000000 10.000000 
L_mid_hand01 0.000000 0.000000 0.000000 0.000000 0.000000 0.000000 10.000000 
L_mid_hand02 0.000000 0.000000 0.000000 0.000000 0.000000 0.000000 10.000000 
L_mid_hand03 0.000000 0.000000 0.000000 0.000000 0.000000 0.000000 10.000000 
null_rope02_connect 0.000000 0.000000 0.000000 0.000000 0.000000 0.000000 10.000000 
Rope2_Seg01 0.000000 0.000000 0.000000 0.000000 0.000000 0.000000 10.000000 
Rope2_Seg02 0.000000 0.000000 0.000000 0.000000 0.000000 0.000000 10.000000 
Rope2_Seg03 0.000000 0.000000 0.000000 0.000000 0.000000 0.000000 10.000000 
Rope2_Seg04 0.000000 0.000000 0.000000 0.000000 0.000000 0.000000 10.000000 
Rope2_Seg05 0.000000 0.000000 0.000000 0.000000 0.000000 0.000000 10.000000 
Rope2_Seg06 0.000000 0.000000 0.000000 0.000000 0.000000 0.000000 10.000000 
Rope2_Seg07 0.000000 0.000000 0.000000 0.000000 0.000000 0.000000 10.000000 
Rope2_Seg09 0.000000 0.000000 0.000000 0.000000 0.000000 0.000000 10.000000 
R_mid_hand01 0.000000 0.000000 0.000000 0.000000 0.000000 0.000000 10.000000 
R_mid_hand02 0.000000 0.000000 0.000000 0.000000 0.000000 0.000000 10.000000 
R_mid_hand03 0.000000 0.000000 0.000000 0.000000 0.000000 0.000000 10.000000 
spine02 0.000000 0.000000 0.000000 0.000000 0.000000 0.000000 10.000000 
spine03 0.000000 0.000000 0.000000 0.000000 0.000000 0.000000 10.000000 
pelvis 0.000000 0.000000 0.000000 0.000000 0.000000 0.000000 10.000000 
null_rope03_connect 0.000000 0.000000 0.000000 0.000000 0.000000 0.000000 10.000000 
null_rope04_connect 0.000000 0.000000 0.000000 0.000000 0.000000 0.000000 10.000000 
Rope3_Seg01 0.000000 0.000000 0.000000 0.000000 0.000000 0.000000 10.000000 
Rope3_Seg02 0.000000 0.000000 0.000000 0.000000 0.000000 0.000000 10.000000 
Rope3_Seg03 0.000000 0.000000 0.000000 0.000000 0.000000 0.000000 10.000000 
Rope3_Seg04 0.000000 0.000000 0.000000 0.000000 0.000000 0.000000 10.000000 
Rope3_Seg05 0.000000 0.000000 0.000000 0.000000 0.000000 0.000000 10.000000 
Rope3_Seg06 0.000000 0.000000 0.000000 0.000000 0.000000 0.000000 10.000000 
Rope3_Seg07 0.000000 0.000000 0.000000 0.000000 0.000000 0.000000 10.000000 
Rope3_Seg08 0.000000 0.000000 0.000000 0.000000 0.000000 0.000000 10.000000 
Rope3_Seg09 0.000000 0.000000 0.000000 0.000000 0.000000 0.000000 10.000000 
R_rear_hand01 0.000000 0.000000 0.000000 0.000000 0.000000 0.000000 10.000000 
R_rear_hand02 0.000000 0.000000 0.000000 0.000000 0.000000 0.000000 10.000000 
R_rear_hand03 0.000000 0.000000 0.000000 0.000000 0.000000 0.000000 10.000000 
Rope4_Seg01 0.000000 0.000000 0.000000 0.000000 0.000000 0.000000 10.000000 
Rope4_Seg02 0.000000 0.000000 0.000000 0.000000 0.000000 0.000000 10.000000 
Rope4_Seg03 0.000000 0.000000 0.000000 0.000000 0.000000 0.000000 10.000000 
Rope4_Seg04 0.000000 0.000000 0.000000 0.000000 0.000000 0.000000 10.000000 
Rope4_Seg05 0.000000 0.000000 0.000000 0.000000 0.000000 0.000000 10.000000 
Rope4_Seg06 0.000000 0.000000 0.000000 0.000000 0.000000 0.000000 10.000000 
Rope4_Seg07 0.000000 0.000000 0.000000 0.000000 0.000000 0.000000 10.000000 
Rope4_Seg08 0.000000 0.000000 0.000000 0.000000 0.000000 0.000000 10.000000 
Rope4_Seg09 0.000000 0.000000 0.000000 0.000000 0.000000 0.000000 10.000000 
L_rear_hand01 0.000000 0.000000 0.000000 0.000000 0.000000 0.000000 10.000000 
L_rear_hand02 0.000000 0.000000 0.000000 0.000000 0.000000 0.000000 10.000000 
L_rear_hand03 0.000000 0.000000 0.000000 0.000000 0.000000 0.000000 10.000000 
#Beginning of Data. Separated by tabs
#Fr	Tx	Ty	Tz	Rx	Ry	Rz	SF
[MASTER]
8 -0.000129 875.000244 0.000000 0.001660 0.001660 0.001660 875.000244
9 -0.000148 1000.000244 0.000000 0.001660 0.001660 0.001660 1000.000244
[root]
8 -10.037786 -74.999382 1482.590332 -91.728912 -11.584501 -89.471634 1484.520020
9 -10.317962 -76.708221 1477.939819 -91.728889 -11.584497 -89.471619 1479.965088
[chest]
8 -84.512650 -34.090519 0.000000 -2.186295 -0.110092 166.808441 91.129311
9 -84.512650 -34.090519 0.000000 -2.185616 -0.117093 166.699020 91.129311
[L_mid_tent01]
8 27.299084 22.179258 -249.918686 -20.489067 9.631804 13.898546 252.381683
9 27.299086 22.179258 -249.918686 -20.466236 9.271868 14.035304 252.381683
[R_mid_tent01]
8 23.228794 24.509907 226.238495 -165.516693 -13.586015 25.240547 228.744751
9 23.228794 24.509907 226.238495 -165.558563 -12.915628 25.417673 228.744751
[spine01]
8 -0.361383 -0.195265 0.000000 0.001954 0.001300 22.712296 0.410763
9 -0.361383 -0.195265 0.000000 0.001955 0.001299 22.767780 0.410763
[Bip01_Neck]
8 165.484543 71.581718 0.000119 176.643677 -1.657967 43.431915 180.302734
9 165.484543 71.581718 0.000119 176.643677 -1.657967 43.431911 180.302734
[L_humerus]
8 -13.983130 -135.272980 -120.471481 -172.713562 72.608841 -82.352135 181.680161
9 -13.983130 -135.272980 -120.471481 -175.472382 65.342819 -85.015884 181.680161
[R_humerus]
8 -13.983309 -135.273102 125.287651 159.716507 -71.202698 -63.472019 184.909012
9 -13.983309 -135.273102 125.287651 167.059753 -64.869232 -70.725250 184.909012
[weapon_bone]
8 235.964890 -300.705902 0.000000 0.000000 -89.951546 -128.212341 382.234833
9 235.964890 -300.705902 0.000000 0.000000 -89.951546 -128.212341 382.234833
[Bip01_Head]
8 213.434174 185.743027 11.418087 4.976202 7.879561 -43.805164 283.169556
9 213.432755 185.746979 11.366816 4.987260 10.061257 -43.762226 283.169006
[eye_left_bone]
8 -24.626970 125.451866 -64.772606 0.000000 -90.000000 -99.840431 143.318359
9 -24.626970 125.451866 -64.772606 0.000000 -90.000000 -99.840431 143.318359
[eye_right_bone]
8 -24.626970 125.451866 64.327362 0.000000 -89.980217 80.156380 143.117676
9 -24.626970 125.451866 64.327362 0.000000 -89.965736 80.156380 143.117676
[L_forearm]
8 322.776093 0.000000 -0.000119 0.000425 -0.002308 -110.861717 322.776093
9 322.776093 0.000000 -0.000119 0.000427 -0.002308 -110.957764 322.776093
[L_front_hand]
8 241.149185 -0.042021 -3.300071 -178.667953 -1.835447 -27.422350 241.171753
9 241.149185 -0.042021 -3.300071 -178.667953 -1.835447 -27.422342 241.171753
[L_weapon_bone]
8 156.183838 0.000000 0.000000 0.000014 0.000007 0.000001 156.183838
9 156.183838 0.000000 0.000000 0.000014 0.000007 0.000001 156.183838
[L_front_hand01_01]
8 86.095154 20.947098 -0.655860 -0.320921 -0.506953 70.185371 88.609184
9 86.095154 20.947098 -0.655860 -0.306535 -0.513312 68.646957 88.609184
[L_front_hand02_01]
8 86.935165 -11.437475 24.513514 146.961243 -57.333778 -52.657810 91.046425
9 86.935165 -11.437475 24.513514 145.004044 -56.473930 -50.323570 91.046425
[L_front_hand03_01]
8 86.637497 -14.123976 -20.424902 -146.985443 55.548409 -54.432819 90.126129
9 86.637497 -14.123976 -20.424902 -145.151367 54.687611 -52.198399 90.126129
[L_front_hand01_02]
8 71.020905 -0.000179 0.000030 0.000317 -0.002326 -105.513657 71.020905
9 71.020905 -0.000179 0.000030 0.000316 -0.002326 -105.490036 71.020905
[L_front_hand02_02]
8 71.020927 -0.000119 0.000060 0.000317 -0.002326 -105.513657 71.020927
9 71.020927 -0.000119 0.000060 0.000316 -0.002326 -105.490036 71.020927
[L_front_hand03_02]
8 71.020905 -0.000060 0.000060 0.000317 -0.002326 -105.513657 71.020905
9 71.020905 -0.000060 0.000060 0.000316 -0.002326 -105.490036 71.020905
[R_forearm]
8 322.776428 -0.000060 0.000030 0.201265 0.067700 -109.507515 322.776428
9 322.776428 -0.000060 0.000030 0.201195 0.067908 -109.625587 322.776428
[R_front_hand]
8 238.847015 -0.006795 2.210259 -2.635298 -10.645460 -26.312506 238.857239
9 238.847015 -0.006795 2.210259 -2.635298 -10.645461 -26.312506 238.857239
[R_weapon_bone]
8 155.664093 0.002503 -0.000030 0.003487 0.001180 -90.988930 155.664078
9 155.664093 0.002503 -0.000030 0.003487 0.001180 -90.988930 155.664078
[R_front_hand01_01]
8 87.624611 14.231146 22.918642 -147.670532 -57.619129 53.605923 91.683487
9 87.624611 14.231146 22.918642 -145.613235 -56.747219 51.157963 91.683487
[R_front_hand02_01]
8 89.356956 14.367283 -19.491137 148.052353 55.989693 55.954597 92.579636
9 89.356956 14.367283 -19.491137 146.110458 55.128284 53.601921 92.579636
[R_front_hand03_01]
8 87.286232 -22.307278 -0.143439 0.125269 -0.437058 -70.957245 90.091743
9 87.286232 -22.307278 -0.143439 0.113738 -0.439575 -69.369316 90.091743
[R_front_hand01_02]
8 71.020905 0.000060 0.000119 0.002323 -0.000334 106.381714 71.020905
9 71.020905 0.000060 0.000119 0.002323 -0.000334 106.381714 71.020905
[R_front_hand02_02]
8 71.020844 -0.000030 -0.000119 0.002323 -0.000334 106.381714 71.020836
9 71.020844 -0.000030 -0.000119 0.002323 -0.000334 106.381714 71.020836
[R_front_hand03_02]
8 71.020905 0.000000 0.000030 0.002323 -0.000334 106.381714 71.020905
9 71.020905 0.000000 0.000030 0.002323 -0.000334 106.381714 71.020905
[null_rope01_connect]
8 328.732483 0.000000 -0.000238 -159.964355 -65.932175 -113.927696 328.732483
9 328.732483 0.000000 -0.000238 -160.832062 -66.086235 -113.136162 328.732483
[Rope1_Seg01]
8 -0.000007 -0.000085 0.000126 103.523132 -0.463876 -79.731537 0.000152
9 -0.000008 -0.000092 0.000122 104.223167 -1.124965 -79.410423 0.000153
[Rope1_Seg02]
8 139.999863 -0.000179 0.000000 -2.393942 -2.191060 -1.234028 139.999863
9 139.999863 -0.000179 0.000000 -2.441540 -2.135097 -1.367903 139.999863
[Rope1_Seg03]
8 139.999924 0.000060 -0.000060 -3.426768 -3.116902 -1.677153 139.999924
9 139.999924 0.000060 -0.000060 -3.285118 -2.917709 -1.711327 139.999924
[Rope1_Seg04]
8 139.999924 -0.000060 -0.000119 -1.526723 -1.144283 -0.992167 139.999924
9 139.999924 -0.000060 -0.000119 -1.711810 -1.223263 -1.201880 139.999924
[Rope1_Seg05]
8 139.999832 0.000119 -0.000060 2.962193 2.868993 1.248764 139.999832
9 139.999832 0.000119 -0.000060 2.365067 2.452615 0.858804 139.999832
[Rope1_Seg06]
8 139.999954 0.000119 -0.000060 1.108868 1.159931 0.418475 139.999954
9 139.999954 0.000119 -0.000060 0.879459 0.983772 0.276295 139.999954
[Rope1_Seg07]
8 139.999985 0.000060 0.000000 0.494546 0.537553 0.167194 139.999985
9 139.999985 0.000060 0.000000 0.372930 0.446489 0.087193 139.999985
[Rope1_Seg09]
8 121.602913 0.000119 -0.000089 -89.793175 -1.359789 0.847147 121.602913
9 121.602913 0.000119 -0.000089 -89.793175 -1.359789 0.847147 121.602913
[L_mid_hand01]
8 103.859421 1.038730 8.195221 109.437721 -41.837845 -13.776228 104.187431
9 103.859421 1.038730 8.195221 109.056190 -40.604698 -13.201404 104.187431
[L_mid_hand02]
8 105.572853 -4.139662 -10.864139 -147.395187 32.186741 -39.191986 106.211075
9 105.572853 -4.139662 -10.864139 -146.713593 31.476528 -37.902313 106.211075
[L_mid_hand03]
8 104.641464 17.579376 -3.913581 -13.988547 12.638442 45.197113 106.179977
9 104.641464 17.579376 -3.913581 -14.267232 12.322316 43.898403 106.179977
[null_rope02_connect]
8 328.732849 0.000179 -0.000119 -148.472763 71.614136 -42.914555 328.732849
9 328.732849 0.000179 -0.000119 -150.001846 72.114532 -44.366497 328.732849
[Rope2_Seg01]
8 0.000083 0.000041 0.000000 -40.423382 1.664845 -92.011253 0.000093
9 0.000084 0.000031 0.000000 -40.981628 1.139844 -92.598747 0.000089
[Rope2_Seg02]
8 139.999741 -0.000060 -0.000119 3.947359 3.528901 4.139368 139.999756
9 139.999741 -0.000060 -0.000119 3.854621 4.080354 3.888073 139.999756
[Rope2_Seg03]
8 140.000107 0.000030 0.000000 6.240011 6.302668 6.901967 140.000107
9 140.000107 0.000030 0.000000 5.826567 6.951756 6.396440 140.000107
[Rope2_Seg04]
8 139.999802 0.000000 -0.000060 -3.417426 -4.155056 -4.049066 139.999802
9 139.999802 0.000000 -0.000060 -3.132357 -4.350746 -3.806313 139.999802
[Rope2_Seg05]
8 139.999985 -0.000060 0.000119 -7.099831 -7.494471 -8.012067 139.999985
9 139.999985 -0.000060 0.000119 -6.522959 -7.866740 -7.316152 139.999985
[Rope2_Seg06]
8 139.999893 -0.000030 -0.000119 -2.996027 -2.320705 -3.253526 139.999893
9 139.999893 -0.000030 -0.000119 -2.799335 -2.486159 -2.971257 139.999893
[Rope2_Seg07]
8 139.999893 0.000060 -0.000060 -1.894697 -1.293708 -2.044773 139.999893
9 139.999893 0.000060 -0.000060 -1.795679 -1.412922 -1.875801 139.999893
[Rope2_Seg09]
8 121.338966 0.000089 -0.000060 33.793236 -1.359788 -0.847141 121.338966
9 121.338966 0.000089 -0.000060 33.793236 -1.359788 -0.847141 121.338966
[R_mid_hand01]
8 104.680779 11.144459 -10.335981 -30.935734 37.970642 48.479172 105.778534
9 104.680779 11.144459 -10.335981 -33.085686 36.191681 44.913227 105.778534
[R_mid_hand02]
8 104.070427 2.443552 8.231699 65.980988 -52.455704 19.994473 104.424065
9 104.070427 2.443552 8.231699 67.611252 -49.370300 17.897308 104.424065
[R_mid_hand03]
8 106.028137 -11.221827 -5.996406 -172.374313 13.894678 -58.153652 106.788818
9 106.028137 -11.221827 -5.996406 -171.571182 13.427422 -54.737041 106.788818
[spine02]
8 129.756927 0.001550 0.000119 0.502274 -4.028557 -14.999044 129.756927
9 129.756927 0.001550 0.000119 0.517551 -4.026569 -15.154319 129.756927
[spine03]
8 78.614006 0.081635 -4.899005 1.981485 3.788047 17.771301 78.766541
9 78.613998 0.081635 -4.899006 1.986832 3.786148 17.859118 78.766541
[pelvis]
8 169.435242 0.051022 0.000000 -0.069478 -0.178071 16.718098 169.435257
9 169.435242 0.051022 0.000000 -0.069781 -0.177953 16.913078 169.435257
[null_rope03_connect]
8 -1.257226 -2.466202 137.391083 0.000000 -89.505051 59.383331 137.418976
9 -1.257226 -2.466202 137.391083 0.000000 -89.513412 59.194176 137.418976
[null_rope04_connect]
8 -1.259640 -2.480268 -137.844437 0.000000 -89.505051 59.383331 137.872513
9 -1.259640 -2.480268 -137.844437 0.000000 -89.513412 59.194176 137.872513
[Rope3_Seg01]
8 0.000010 0.000038 -0.000114 17.828762 23.039730 -78.821793 0.000121
9 0.000010 0.000038 -0.000114 17.620993 22.218061 -79.202911 0.000121
[Rope3_Seg02]
8 139.999924 -0.000119 0.000060 0.199849 -1.836244 -4.949408 139.999924
9 139.999924 -0.000119 0.000060 0.205797 -1.771011 -5.513808 139.999924
[Rope3_Seg03]
8 139.999924 -0.000119 0.000119 0.071016 -1.623975 -5.239184 139.999924
9 139.999924 -0.000119 0.000119 0.007658 -1.478670 -5.832409 139.999924
[Rope3_Seg04]
8 139.999924 0.000119 0.000000 -1.167863 1.350111 -9.907066 139.999924
9 139.999924 0.000119 0.000000 -1.460439 1.290726 -10.694685 139.999924
[Rope3_Seg05]
8 139.999924 -0.000238 0.000060 0.916782 -4.000899 -0.554943 139.999924
9 139.999924 -0.000238 0.000060 1.037486 -3.816839 -0.047753 139.999924
[Rope3_Seg06]
8 139.999893 -0.000119 -0.000060 2.967296 -11.221995 11.887453 139.999893
9 139.999893 -0.000119 -0.000060 3.170883 -10.511898 13.275643 139.999893
[Rope3_Seg07]
8 139.999771 0.000060 -0.000119 1.821019 -8.245447 9.671691 139.999771
9 139.999771 0.000060 -0.000119 1.668320 -7.612916 10.763117 139.999771
[Rope3_Seg08]
8 139.999985 -0.000060 0.000000 1.108880 -4.494819 5.112546 139.999985
9 139.999985 -0.000060 0.000000 0.920805 -4.135294 5.691925 139.999985
[Rope3_Seg09]
8 90.185997 -0.000179 -0.000060 89.793228 -1.359877 -0.847183 90.185997
9 90.185997 -0.000179 -0.000060 89.793228 -1.359877 -0.847183 90.185997
[R_rear_hand01]
8 103.366196 -6.073594 -10.757982 -168.239929 21.836601 -50.169044 104.101845
9 103.366196 -6.073594 -10.757982 -166.818848 21.039259 -46.280426 104.101845
[R_rear_hand02]
8 100.509819 12.039542 -7.992327 -26.552095 29.320543 47.442066 101.543350
9 100.509819 12.039542 -7.992327 -28.339693 27.613865 43.697414 101.543350
[R_rear_hand03]
8 101.539970 5.215704 5.435467 81.061974 -50.389538 10.772509 101.819031
9 101.539970 5.215704 5.435467 81.685280 -46.725750 9.939899 101.819031
[Rope4_Seg01]
8 0.000010 0.000038 -0.000114 -92.921776 29.789829 -85.787552 0.000121
9 0.000010 0.000038 -0.000114 -92.796997 30.274712 -85.779968 0.000121
[Rope4_Seg02]
8 139.999985 0.000060 0.000119 -0.294377 0.054769 -3.401772 139.999985
9 139.999985 0.000060 0.000119 -0.346346 0.082569 -3.928853 139.999985
[Rope4_Seg03]
8 139.999924 0.000000 -0.000238 -0.366137 0.055112 -3.401820 139.999924
9 139.999924 0.000000 -0.000238 -0.442145 0.097814 -3.936421 139.999924
[Rope4_Seg04]
8 139.999985 0.000000 0.000119 -0.280586 -0.420315 -2.623728 139.999985
9 139.999985 0.000000 0.000119 -0.440020 -0.120467 -3.455462 139.999985
[Rope4_Seg05]
8 139.999802 -0.000060 -0.000119 -0.696352 0.540116 -4.236219 139.999802
9 139.999802 -0.000060 -0.000119 -0.735529 0.379239 -4.403632 139.999802
[Rope4_Seg06]
8 139.999924 0.000000 0.000060 -0.986863 1.588322 -4.880688 139.999924
9 139.999924 0.000000 0.000060 -0.870740 0.933306 -4.408446 139.999924
[Rope4_Seg07]
8 139.999802 0.000000 0.000000 -0.634385 1.106277 -3.353375 139.999802
9 139.999802 0.000000 0.000000 -0.611569 0.702083 -3.182674 139.999802
[Rope4_Seg08]
8 139.999924 0.000000 0.000119 -1.929267 0.639596 -2.071893 139.999924
9 139.999924 0.000000 0.000119 -1.950061 0.426800 -2.053536 139.999924
[Rope4_Seg09]
8 90.185791 0.000060 0.000060 -135.617828 2.228885 0.850567 90.185791
9 90.185791 0.000060 0.000060 -135.617828 2.228885 0.850567 90.185791
[L_rear_hand01]
8 101.696655 -8.392275 -7.654577 -31.429779 -23.932976 143.406311 102.329041
9 101.696655 -8.392275 -7.654577 -30.719042 -24.879360 141.681366 102.329041
[L_rear_hand02]
8 102.726799 -1.568258 5.773216 82.628304 39.414528 171.441589 102.900848
9 102.726799 -1.568258 5.773216 82.428490 41.230476 171.131027 102.900848
[L_rear_hand03]
8 104.552910 9.721220 -10.420293 -164.198181 -19.188400 -141.332703 105.519653
9 104.552910 9.721220 -10.420293 -164.822937 -19.676041 -139.457672 105.519653
